<mxfile host="app.diagrams.net" modified="2023-06-21T20:58:45.270Z" agent="Mozilla/5.0 (Windows NT 10.0; Win64; x64) AppleWebKit/537.36 (KHTML, like Gecko) Chrome/114.0.0.0 Safari/537.36" etag="8NKLY8q72UOPLU-6yif0" version="21.4.0" type="device">
  <diagram name="PÃ¡gina-1" id="yMAYQHdzKudlGP9ZiAAw">
    <mxGraphModel dx="926" dy="501" grid="1" gridSize="10" guides="1" tooltips="1" connect="1" arrows="1" fold="1" page="1" pageScale="1" pageWidth="827" pageHeight="1169" math="0" shadow="0">
      <root>
        <mxCell id="0" />
        <mxCell id="1" parent="0" />
        <mxCell id="e5V6Vlwz6WyX7BvCqU7v-1" value="Restaurante" style="swimlane;fontStyle=0;childLayout=stackLayout;horizontal=1;startSize=26;fillColor=#6a00ff;horizontalStack=0;resizeParent=1;resizeParentMax=0;resizeLast=0;collapsible=1;marginBottom=0;whiteSpace=wrap;html=1;strokeColor=#3700CC;fontColor=#ffffff;" vertex="1" parent="1">
          <mxGeometry x="170" y="10" width="160" height="182" as="geometry" />
        </mxCell>
        <mxCell id="e5V6Vlwz6WyX7BvCqU7v-42" value="&lt;b&gt;id (PK) : int&lt;/b&gt;" style="text;strokeColor=none;fillColor=#dae8fc;align=left;verticalAlign=top;spacingLeft=4;spacingRight=4;overflow=hidden;rotatable=0;points=[[0,0.5],[1,0.5]];portConstraint=eastwest;whiteSpace=wrap;html=1;" vertex="1" parent="e5V6Vlwz6WyX7BvCqU7v-1">
          <mxGeometry y="26" width="160" height="26" as="geometry" />
        </mxCell>
        <mxCell id="e5V6Vlwz6WyX7BvCqU7v-2" value="nombre : char(50)" style="text;strokeColor=none;fillColor=#dae8fc;align=left;verticalAlign=top;spacingLeft=4;spacingRight=4;overflow=hidden;rotatable=0;points=[[0,0.5],[1,0.5]];portConstraint=eastwest;whiteSpace=wrap;html=1;" vertex="1" parent="e5V6Vlwz6WyX7BvCqU7v-1">
          <mxGeometry y="52" width="160" height="26" as="geometry" />
        </mxCell>
        <mxCell id="e5V6Vlwz6WyX7BvCqU7v-3" value="foto : longtext" style="text;strokeColor=none;fillColor=#dae8fc;align=left;verticalAlign=top;spacingLeft=4;spacingRight=4;overflow=hidden;rotatable=0;points=[[0,0.5],[1,0.5]];portConstraint=eastwest;whiteSpace=wrap;html=1;" vertex="1" parent="e5V6Vlwz6WyX7BvCqU7v-1">
          <mxGeometry y="78" width="160" height="26" as="geometry" />
        </mxCell>
        <mxCell id="e5V6Vlwz6WyX7BvCqU7v-5" value="direccion : char(255)" style="text;strokeColor=none;fillColor=#dae8fc;align=left;verticalAlign=top;spacingLeft=4;spacingRight=4;overflow=hidden;rotatable=0;points=[[0,0.5],[1,0.5]];portConstraint=eastwest;whiteSpace=wrap;html=1;" vertex="1" parent="e5V6Vlwz6WyX7BvCqU7v-1">
          <mxGeometry y="104" width="160" height="26" as="geometry" />
        </mxCell>
        <mxCell id="e5V6Vlwz6WyX7BvCqU7v-6" value="horario/atencion : cahr(255)" style="text;strokeColor=none;fillColor=#dae8fc;align=left;verticalAlign=top;spacingLeft=4;spacingRight=4;overflow=hidden;rotatable=0;points=[[0,0.5],[1,0.5]];portConstraint=eastwest;whiteSpace=wrap;html=1;" vertex="1" parent="e5V6Vlwz6WyX7BvCqU7v-1">
          <mxGeometry y="130" width="160" height="26" as="geometry" />
        </mxCell>
        <mxCell id="e5V6Vlwz6WyX7BvCqU7v-4" value="calificacion : tinyint(1)" style="text;strokeColor=none;fillColor=#dae8fc;align=left;verticalAlign=top;spacingLeft=4;spacingRight=4;overflow=hidden;rotatable=0;points=[[0,0.5],[1,0.5]];portConstraint=eastwest;whiteSpace=wrap;html=1;" vertex="1" parent="e5V6Vlwz6WyX7BvCqU7v-1">
          <mxGeometry y="156" width="160" height="26" as="geometry" />
        </mxCell>
        <mxCell id="e5V6Vlwz6WyX7BvCqU7v-7" value="Platos" style="swimlane;fontStyle=0;childLayout=stackLayout;horizontal=1;startSize=26;fillColor=#6a00ff;horizontalStack=0;resizeParent=1;resizeParentMax=0;resizeLast=0;collapsible=1;marginBottom=0;whiteSpace=wrap;html=1;strokeColor=#3700CC;fontColor=#ffffff;" vertex="1" parent="1">
          <mxGeometry x="640" y="410" width="140" height="156" as="geometry" />
        </mxCell>
        <mxCell id="e5V6Vlwz6WyX7BvCqU7v-44" value="&lt;b&gt;id (PK) : int&lt;/b&gt;" style="text;strokeColor=none;fillColor=#dae8fc;align=left;verticalAlign=top;spacingLeft=4;spacingRight=4;overflow=hidden;rotatable=0;points=[[0,0.5],[1,0.5]];portConstraint=eastwest;whiteSpace=wrap;html=1;" vertex="1" parent="e5V6Vlwz6WyX7BvCqU7v-7">
          <mxGeometry y="26" width="140" height="26" as="geometry" />
        </mxCell>
        <mxCell id="e5V6Vlwz6WyX7BvCqU7v-8" value="nombre:&amp;nbsp; char(100)" style="text;strokeColor=none;fillColor=#dae8fc;align=left;verticalAlign=top;spacingLeft=4;spacingRight=4;overflow=hidden;rotatable=0;points=[[0,0.5],[1,0.5]];portConstraint=eastwest;whiteSpace=wrap;html=1;" vertex="1" parent="e5V6Vlwz6WyX7BvCqU7v-7">
          <mxGeometry y="52" width="140" height="26" as="geometry" />
        </mxCell>
        <mxCell id="e5V6Vlwz6WyX7BvCqU7v-9" value="foto : longtext" style="text;strokeColor=none;fillColor=#dae8fc;align=left;verticalAlign=top;spacingLeft=4;spacingRight=4;overflow=hidden;rotatable=0;points=[[0,0.5],[1,0.5]];portConstraint=eastwest;whiteSpace=wrap;html=1;" vertex="1" parent="e5V6Vlwz6WyX7BvCqU7v-7">
          <mxGeometry y="78" width="140" height="26" as="geometry" />
        </mxCell>
        <mxCell id="e5V6Vlwz6WyX7BvCqU7v-10" value="descripcion : char(255)" style="text;strokeColor=none;fillColor=#dae8fc;align=left;verticalAlign=top;spacingLeft=4;spacingRight=4;overflow=hidden;rotatable=0;points=[[0,0.5],[1,0.5]];portConstraint=eastwest;whiteSpace=wrap;html=1;" vertex="1" parent="e5V6Vlwz6WyX7BvCqU7v-7">
          <mxGeometry y="104" width="140" height="26" as="geometry" />
        </mxCell>
        <mxCell id="e5V6Vlwz6WyX7BvCqU7v-11" value="precio : float(8,2)" style="text;strokeColor=none;fillColor=#dae8fc;align=left;verticalAlign=top;spacingLeft=4;spacingRight=4;overflow=hidden;rotatable=0;points=[[0,0.5],[1,0.5]];portConstraint=eastwest;whiteSpace=wrap;html=1;" vertex="1" parent="e5V6Vlwz6WyX7BvCqU7v-7">
          <mxGeometry y="130" width="140" height="26" as="geometry" />
        </mxCell>
        <mxCell id="e5V6Vlwz6WyX7BvCqU7v-30" value="Pedido" style="swimlane;fontStyle=0;childLayout=stackLayout;horizontal=1;startSize=26;horizontalStack=0;resizeParent=1;resizeParentMax=0;resizeLast=0;collapsible=1;marginBottom=0;whiteSpace=wrap;html=1;fillColor=#6a00ff;fontColor=#ffffff;strokeColor=default;" vertex="1" parent="1">
          <mxGeometry x="430" y="10" width="170" height="312" as="geometry" />
        </mxCell>
        <mxCell id="e5V6Vlwz6WyX7BvCqU7v-43" value="&lt;b&gt;id (PK) : int&lt;/b&gt;" style="text;strokeColor=none;fillColor=#dae8fc;align=left;verticalAlign=top;spacingLeft=4;spacingRight=4;overflow=hidden;rotatable=0;points=[[0,0.5],[1,0.5]];portConstraint=eastwest;whiteSpace=wrap;html=1;" vertex="1" parent="e5V6Vlwz6WyX7BvCqU7v-30">
          <mxGeometry y="26" width="170" height="26" as="geometry" />
        </mxCell>
        <mxCell id="e5V6Vlwz6WyX7BvCqU7v-31" value="fechaRealizacion : date" style="text;strokeColor=none;fillColor=#dae8fc;align=left;verticalAlign=top;spacingLeft=4;spacingRight=4;overflow=hidden;rotatable=0;points=[[0,0.5],[1,0.5]];portConstraint=eastwest;whiteSpace=wrap;html=1;" vertex="1" parent="e5V6Vlwz6WyX7BvCqU7v-30">
          <mxGeometry y="52" width="170" height="26" as="geometry" />
        </mxCell>
        <mxCell id="e5V6Vlwz6WyX7BvCqU7v-32" value="horaRealizacion : time" style="text;strokeColor=none;fillColor=#dae8fc;align=left;verticalAlign=top;spacingLeft=4;spacingRight=4;overflow=hidden;rotatable=0;points=[[0,0.5],[1,0.5]];portConstraint=eastwest;whiteSpace=wrap;html=1;" vertex="1" parent="e5V6Vlwz6WyX7BvCqU7v-30">
          <mxGeometry y="78" width="170" height="26" as="geometry" />
        </mxCell>
        <mxCell id="e5V6Vlwz6WyX7BvCqU7v-33" value="cantidad : tinyint(4)" style="text;strokeColor=none;fillColor=#dae8fc;align=left;verticalAlign=top;spacingLeft=4;spacingRight=4;overflow=hidden;rotatable=0;points=[[0,0.5],[1,0.5]];portConstraint=eastwest;whiteSpace=wrap;html=1;" vertex="1" parent="e5V6Vlwz6WyX7BvCqU7v-30">
          <mxGeometry y="104" width="170" height="26" as="geometry" />
        </mxCell>
        <mxCell id="e5V6Vlwz6WyX7BvCqU7v-38" value="precioFinal : float (8,2)" style="text;strokeColor=none;fillColor=#dae8fc;align=left;verticalAlign=top;spacingLeft=4;spacingRight=4;overflow=hidden;rotatable=0;points=[[0,0.5],[1,0.5]];portConstraint=eastwest;whiteSpace=wrap;html=1;" vertex="1" parent="e5V6Vlwz6WyX7BvCqU7v-30">
          <mxGeometry y="130" width="170" height="26" as="geometry" />
        </mxCell>
        <mxCell id="e5V6Vlwz6WyX7BvCqU7v-35" value="aclaraciones : char(255)" style="text;strokeColor=none;fillColor=#dae8fc;align=left;verticalAlign=top;spacingLeft=4;spacingRight=4;overflow=hidden;rotatable=0;points=[[0,0.5],[1,0.5]];portConstraint=eastwest;whiteSpace=wrap;html=1;" vertex="1" parent="e5V6Vlwz6WyX7BvCqU7v-30">
          <mxGeometry y="156" width="170" height="26" as="geometry" />
        </mxCell>
        <mxCell id="e5V6Vlwz6WyX7BvCqU7v-36" value="direccionEntrega : char(255)" style="text;strokeColor=none;fillColor=#dae8fc;align=left;verticalAlign=top;spacingLeft=4;spacingRight=4;overflow=hidden;rotatable=0;points=[[0,0.5],[1,0.5]];portConstraint=eastwest;whiteSpace=wrap;html=1;" vertex="1" parent="e5V6Vlwz6WyX7BvCqU7v-30">
          <mxGeometry y="182" width="170" height="26" as="geometry" />
        </mxCell>
        <mxCell id="e5V6Vlwz6WyX7BvCqU7v-39" value="fechaEnvio : date" style="text;strokeColor=none;fillColor=#dae8fc;align=left;verticalAlign=top;spacingLeft=4;spacingRight=4;overflow=hidden;rotatable=0;points=[[0,0.5],[1,0.5]];portConstraint=eastwest;whiteSpace=wrap;html=1;" vertex="1" parent="e5V6Vlwz6WyX7BvCqU7v-30">
          <mxGeometry y="208" width="170" height="26" as="geometry" />
        </mxCell>
        <mxCell id="e5V6Vlwz6WyX7BvCqU7v-37" value="horaEnvio : time" style="text;strokeColor=none;fillColor=#dae8fc;align=left;verticalAlign=top;spacingLeft=4;spacingRight=4;overflow=hidden;rotatable=0;points=[[0,0.5],[1,0.5]];portConstraint=eastwest;whiteSpace=wrap;html=1;" vertex="1" parent="e5V6Vlwz6WyX7BvCqU7v-30">
          <mxGeometry y="234" width="170" height="26" as="geometry" />
        </mxCell>
        <mxCell id="e5V6Vlwz6WyX7BvCqU7v-100" value="&lt;b&gt;restauratnid (FK) : int&lt;/b&gt;" style="text;strokeColor=none;fillColor=#dae8fc;align=left;verticalAlign=top;spacingLeft=4;spacingRight=4;overflow=hidden;rotatable=0;points=[[0,0.5],[1,0.5]];portConstraint=eastwest;whiteSpace=wrap;html=1;" vertex="1" parent="e5V6Vlwz6WyX7BvCqU7v-30">
          <mxGeometry y="260" width="170" height="26" as="geometry" />
        </mxCell>
        <mxCell id="e5V6Vlwz6WyX7BvCqU7v-107" value="&lt;b&gt;usuarioid (FK) : int&lt;/b&gt;" style="text;strokeColor=none;fillColor=#dae8fc;align=left;verticalAlign=top;spacingLeft=4;spacingRight=4;overflow=hidden;rotatable=0;points=[[0,0.5],[1,0.5]];portConstraint=eastwest;whiteSpace=wrap;html=1;" vertex="1" parent="e5V6Vlwz6WyX7BvCqU7v-30">
          <mxGeometry y="286" width="170" height="26" as="geometry" />
        </mxCell>
        <mxCell id="e5V6Vlwz6WyX7BvCqU7v-25" value="Ingrediente" style="swimlane;fontStyle=0;childLayout=stackLayout;horizontal=1;startSize=26;fillColor=#6a00ff;horizontalStack=0;resizeParent=1;resizeParentMax=0;resizeLast=0;collapsible=1;marginBottom=0;whiteSpace=wrap;html=1;strokeColor=#3700CC;fontColor=#ffffff;" vertex="1" parent="1">
          <mxGeometry x="260" y="410" width="140" height="104" as="geometry" />
        </mxCell>
        <mxCell id="e5V6Vlwz6WyX7BvCqU7v-41" value="&lt;b&gt;id (PK) : int&lt;/b&gt;" style="text;strokeColor=none;fillColor=#dae8fc;align=left;verticalAlign=top;spacingLeft=4;spacingRight=4;overflow=hidden;rotatable=0;points=[[0,0.5],[1,0.5]];portConstraint=eastwest;whiteSpace=wrap;html=1;" vertex="1" parent="e5V6Vlwz6WyX7BvCqU7v-25">
          <mxGeometry y="26" width="140" height="26" as="geometry" />
        </mxCell>
        <mxCell id="e5V6Vlwz6WyX7BvCqU7v-26" value="nombre : char(50)" style="text;strokeColor=none;fillColor=#dae8fc;align=left;verticalAlign=top;spacingLeft=4;spacingRight=4;overflow=hidden;rotatable=0;points=[[0,0.5],[1,0.5]];portConstraint=eastwest;whiteSpace=wrap;html=1;" vertex="1" parent="e5V6Vlwz6WyX7BvCqU7v-25">
          <mxGeometry y="52" width="140" height="26" as="geometry" />
        </mxCell>
        <mxCell id="e5V6Vlwz6WyX7BvCqU7v-29" value="detalle : char(255)" style="text;strokeColor=none;fillColor=#dae8fc;align=left;verticalAlign=top;spacingLeft=4;spacingRight=4;overflow=hidden;rotatable=0;points=[[0,0.5],[1,0.5]];portConstraint=eastwest;whiteSpace=wrap;html=1;" vertex="1" parent="e5V6Vlwz6WyX7BvCqU7v-25">
          <mxGeometry y="78" width="140" height="26" as="geometry" />
        </mxCell>
        <mxCell id="e5V6Vlwz6WyX7BvCqU7v-51" value="Usuarios" style="swimlane;fontStyle=0;childLayout=stackLayout;horizontal=1;startSize=26;horizontalStack=0;resizeParent=1;resizeParentMax=0;resizeLast=0;collapsible=1;marginBottom=0;whiteSpace=wrap;html=1;fillColor=#6a00ff;fontColor=#ffffff;strokeColor=default;" vertex="1" parent="1">
          <mxGeometry x="690" y="20" width="170" height="338" as="geometry" />
        </mxCell>
        <mxCell id="e5V6Vlwz6WyX7BvCqU7v-52" value="&lt;b&gt;id (PK) : int&lt;/b&gt;" style="text;strokeColor=none;fillColor=#dae8fc;align=left;verticalAlign=top;spacingLeft=4;spacingRight=4;overflow=hidden;rotatable=0;points=[[0,0.5],[1,0.5]];portConstraint=eastwest;whiteSpace=wrap;html=1;" vertex="1" parent="e5V6Vlwz6WyX7BvCqU7v-51">
          <mxGeometry y="26" width="170" height="26" as="geometry" />
        </mxCell>
        <mxCell id="e5V6Vlwz6WyX7BvCqU7v-61" value="nombre : char(50)" style="text;strokeColor=none;fillColor=#dae8fc;align=left;verticalAlign=top;spacingLeft=4;spacingRight=4;overflow=hidden;rotatable=0;points=[[0,0.5],[1,0.5]];portConstraint=eastwest;whiteSpace=wrap;html=1;" vertex="1" parent="e5V6Vlwz6WyX7BvCqU7v-51">
          <mxGeometry y="52" width="170" height="26" as="geometry" />
        </mxCell>
        <mxCell id="e5V6Vlwz6WyX7BvCqU7v-53" value="telefono :" style="text;strokeColor=none;fillColor=#dae8fc;align=left;verticalAlign=top;spacingLeft=4;spacingRight=4;overflow=hidden;rotatable=0;points=[[0,0.5],[1,0.5]];portConstraint=eastwest;whiteSpace=wrap;html=1;" vertex="1" parent="e5V6Vlwz6WyX7BvCqU7v-51">
          <mxGeometry y="78" width="170" height="26" as="geometry" />
        </mxCell>
        <mxCell id="e5V6Vlwz6WyX7BvCqU7v-62" value="direccion : char(255)" style="text;strokeColor=none;fillColor=#dae8fc;align=left;verticalAlign=top;spacingLeft=4;spacingRight=4;overflow=hidden;rotatable=0;points=[[0,0.5],[1,0.5]];portConstraint=eastwest;whiteSpace=wrap;html=1;" vertex="1" parent="e5V6Vlwz6WyX7BvCqU7v-51">
          <mxGeometry y="104" width="170" height="26" as="geometry" />
        </mxCell>
        <mxCell id="e5V6Vlwz6WyX7BvCqU7v-64" value="numeroPuerta :&lt;br&gt;" style="text;strokeColor=none;fillColor=#dae8fc;align=left;verticalAlign=top;spacingLeft=4;spacingRight=4;overflow=hidden;rotatable=0;points=[[0,0.5],[1,0.5]];portConstraint=eastwest;whiteSpace=wrap;html=1;" vertex="1" parent="e5V6Vlwz6WyX7BvCqU7v-51">
          <mxGeometry y="130" width="170" height="26" as="geometry" />
        </mxCell>
        <mxCell id="e5V6Vlwz6WyX7BvCqU7v-65" value="piso :" style="text;strokeColor=none;fillColor=#dae8fc;align=left;verticalAlign=top;spacingLeft=4;spacingRight=4;overflow=hidden;rotatable=0;points=[[0,0.5],[1,0.5]];portConstraint=eastwest;whiteSpace=wrap;html=1;" vertex="1" parent="e5V6Vlwz6WyX7BvCqU7v-51">
          <mxGeometry y="156" width="170" height="26" as="geometry" />
        </mxCell>
        <mxCell id="e5V6Vlwz6WyX7BvCqU7v-66" value="departamento :" style="text;strokeColor=none;fillColor=#dae8fc;align=left;verticalAlign=top;spacingLeft=4;spacingRight=4;overflow=hidden;rotatable=0;points=[[0,0.5],[1,0.5]];portConstraint=eastwest;whiteSpace=wrap;html=1;" vertex="1" parent="e5V6Vlwz6WyX7BvCqU7v-51">
          <mxGeometry y="182" width="170" height="26" as="geometry" />
        </mxCell>
        <mxCell id="e5V6Vlwz6WyX7BvCqU7v-67" value="aclaraciones :" style="text;strokeColor=none;fillColor=#dae8fc;align=left;verticalAlign=top;spacingLeft=4;spacingRight=4;overflow=hidden;rotatable=0;points=[[0,0.5],[1,0.5]];portConstraint=eastwest;whiteSpace=wrap;html=1;" vertex="1" parent="e5V6Vlwz6WyX7BvCqU7v-51">
          <mxGeometry y="208" width="170" height="26" as="geometry" />
        </mxCell>
        <mxCell id="e5V6Vlwz6WyX7BvCqU7v-63" value="email&amp;nbsp;:" style="text;strokeColor=none;fillColor=#dae8fc;align=left;verticalAlign=top;spacingLeft=4;spacingRight=4;overflow=hidden;rotatable=0;points=[[0,0.5],[1,0.5]];portConstraint=eastwest;whiteSpace=wrap;html=1;" vertex="1" parent="e5V6Vlwz6WyX7BvCqU7v-51">
          <mxGeometry y="234" width="170" height="26" as="geometry" />
        </mxCell>
        <mxCell id="e5V6Vlwz6WyX7BvCqU7v-68" value="password :" style="text;strokeColor=none;fillColor=#dae8fc;align=left;verticalAlign=top;spacingLeft=4;spacingRight=4;overflow=hidden;rotatable=0;points=[[0,0.5],[1,0.5]];portConstraint=eastwest;whiteSpace=wrap;html=1;" vertex="1" parent="e5V6Vlwz6WyX7BvCqU7v-51">
          <mxGeometry y="260" width="170" height="26" as="geometry" />
        </mxCell>
        <mxCell id="e5V6Vlwz6WyX7BvCqU7v-97" value="estado :&amp;nbsp;" style="text;strokeColor=none;fillColor=#dae8fc;align=left;verticalAlign=top;spacingLeft=4;spacingRight=4;overflow=hidden;rotatable=0;points=[[0,0.5],[1,0.5]];portConstraint=eastwest;whiteSpace=wrap;html=1;" vertex="1" parent="e5V6Vlwz6WyX7BvCqU7v-51">
          <mxGeometry y="286" width="170" height="26" as="geometry" />
        </mxCell>
        <mxCell id="e5V6Vlwz6WyX7BvCqU7v-109" value="&lt;b&gt;membresiaid (FK) : int&lt;/b&gt;" style="text;strokeColor=none;fillColor=#dae8fc;align=left;verticalAlign=top;spacingLeft=4;spacingRight=4;overflow=hidden;rotatable=0;points=[[0,0.5],[1,0.5]];portConstraint=eastwest;whiteSpace=wrap;html=1;" vertex="1" parent="e5V6Vlwz6WyX7BvCqU7v-51">
          <mxGeometry y="312" width="170" height="26" as="geometry" />
        </mxCell>
        <mxCell id="e5V6Vlwz6WyX7BvCqU7v-80" value="MembresÃ­a" style="swimlane;fontStyle=0;childLayout=stackLayout;horizontal=1;startSize=26;fillColor=#6a00ff;horizontalStack=0;resizeParent=1;resizeParentMax=0;resizeLast=0;collapsible=1;marginBottom=0;whiteSpace=wrap;html=1;strokeColor=#3700CC;fontColor=#ffffff;" vertex="1" parent="1">
          <mxGeometry x="950" y="20" width="160" height="130" as="geometry" />
        </mxCell>
        <mxCell id="e5V6Vlwz6WyX7BvCqU7v-81" value="&lt;b&gt;id (PK) : int&lt;/b&gt;" style="text;strokeColor=none;fillColor=#dae8fc;align=left;verticalAlign=top;spacingLeft=4;spacingRight=4;overflow=hidden;rotatable=0;points=[[0,0.5],[1,0.5]];portConstraint=eastwest;whiteSpace=wrap;html=1;" vertex="1" parent="e5V6Vlwz6WyX7BvCqU7v-80">
          <mxGeometry y="26" width="160" height="26" as="geometry" />
        </mxCell>
        <mxCell id="e5V6Vlwz6WyX7BvCqU7v-84" value="fechaAlta : date" style="text;strokeColor=none;fillColor=#dae8fc;align=left;verticalAlign=top;spacingLeft=4;spacingRight=4;overflow=hidden;rotatable=0;points=[[0,0.5],[1,0.5]];portConstraint=eastwest;whiteSpace=wrap;html=1;" vertex="1" parent="e5V6Vlwz6WyX7BvCqU7v-80">
          <mxGeometry y="52" width="160" height="26" as="geometry" />
        </mxCell>
        <mxCell id="e5V6Vlwz6WyX7BvCqU7v-85" value="fechaVencimiento : date" style="text;strokeColor=none;fillColor=#dae8fc;align=left;verticalAlign=top;spacingLeft=4;spacingRight=4;overflow=hidden;rotatable=0;points=[[0,0.5],[1,0.5]];portConstraint=eastwest;whiteSpace=wrap;html=1;" vertex="1" parent="e5V6Vlwz6WyX7BvCqU7v-80">
          <mxGeometry y="78" width="160" height="26" as="geometry" />
        </mxCell>
        <mxCell id="e5V6Vlwz6WyX7BvCqU7v-98" value="renovacion :&amp;nbsp;" style="text;strokeColor=none;fillColor=#dae8fc;align=left;verticalAlign=top;spacingLeft=4;spacingRight=4;overflow=hidden;rotatable=0;points=[[0,0.5],[1,0.5]];portConstraint=eastwest;whiteSpace=wrap;html=1;" vertex="1" parent="e5V6Vlwz6WyX7BvCqU7v-80">
          <mxGeometry y="104" width="160" height="26" as="geometry" />
        </mxCell>
        <mxCell id="e5V6Vlwz6WyX7BvCqU7v-101" value="" style="endArrow=none;html=1;rounded=0;exitX=1;exitY=0.5;exitDx=0;exitDy=0;entryX=0;entryY=0.5;entryDx=0;entryDy=0;" edge="1" parent="1" source="e5V6Vlwz6WyX7BvCqU7v-1" target="e5V6Vlwz6WyX7BvCqU7v-32">
          <mxGeometry width="50" height="50" relative="1" as="geometry">
            <mxPoint x="370" y="160" as="sourcePoint" />
            <mxPoint x="420" y="110" as="targetPoint" />
          </mxGeometry>
        </mxCell>
        <mxCell id="e5V6Vlwz6WyX7BvCqU7v-103" value="*" style="edgeLabel;html=1;align=center;verticalAlign=middle;resizable=0;points=[];" vertex="1" connectable="0" parent="e5V6Vlwz6WyX7BvCqU7v-101">
          <mxGeometry x="0.5326" y="1" relative="1" as="geometry">
            <mxPoint x="8" y="-2" as="offset" />
          </mxGeometry>
        </mxCell>
        <mxCell id="e5V6Vlwz6WyX7BvCqU7v-104" value="" style="endArrow=none;html=1;rounded=0;exitX=1;exitY=0.5;exitDx=0;exitDy=0;" edge="1" parent="1" source="e5V6Vlwz6WyX7BvCqU7v-30">
          <mxGeometry width="50" height="50" relative="1" as="geometry">
            <mxPoint x="630" y="210" as="sourcePoint" />
            <mxPoint x="690" y="166" as="targetPoint" />
            <Array as="points" />
          </mxGeometry>
        </mxCell>
        <mxCell id="e5V6Vlwz6WyX7BvCqU7v-106" value="*" style="edgeLabel;html=1;align=center;verticalAlign=middle;resizable=0;points=[];" vertex="1" connectable="0" parent="e5V6Vlwz6WyX7BvCqU7v-104">
          <mxGeometry x="0.3871" y="-3" relative="1" as="geometry">
            <mxPoint x="18" y="-6" as="offset" />
          </mxGeometry>
        </mxCell>
        <mxCell id="e5V6Vlwz6WyX7BvCqU7v-108" value="" style="endArrow=none;html=1;rounded=0;exitX=1;exitY=0.25;exitDx=0;exitDy=0;entryX=-0.001;entryY=0.2;entryDx=0;entryDy=0;entryPerimeter=0;" edge="1" parent="1" source="e5V6Vlwz6WyX7BvCqU7v-51" target="e5V6Vlwz6WyX7BvCqU7v-85">
          <mxGeometry width="50" height="50" relative="1" as="geometry">
            <mxPoint x="890" y="150" as="sourcePoint" />
            <mxPoint x="940" y="100" as="targetPoint" />
          </mxGeometry>
        </mxCell>
        <mxCell id="e5V6Vlwz6WyX7BvCqU7v-111" value="*" style="edgeLabel;html=1;align=center;verticalAlign=middle;resizable=0;points=[];" vertex="1" connectable="0" parent="e5V6Vlwz6WyX7BvCqU7v-108">
          <mxGeometry x="0.5306" y="1" relative="1" as="geometry">
            <mxPoint y="-5" as="offset" />
          </mxGeometry>
        </mxCell>
        <mxCell id="e5V6Vlwz6WyX7BvCqU7v-114" value="IngredientePlato" style="swimlane;fontStyle=0;childLayout=stackLayout;horizontal=1;startSize=26;fillColor=#6a00ff;horizontalStack=0;resizeParent=1;resizeParentMax=0;resizeLast=0;collapsible=1;marginBottom=0;whiteSpace=wrap;html=1;strokeColor=#3700CC;fontColor=#ffffff;" vertex="1" parent="1">
          <mxGeometry x="445" y="410" width="140" height="104" as="geometry" />
        </mxCell>
        <mxCell id="e5V6Vlwz6WyX7BvCqU7v-115" value="&lt;b&gt;id (PK) : int&lt;/b&gt;" style="text;strokeColor=none;fillColor=#dae8fc;align=left;verticalAlign=top;spacingLeft=4;spacingRight=4;overflow=hidden;rotatable=0;points=[[0,0.5],[1,0.5]];portConstraint=eastwest;whiteSpace=wrap;html=1;" vertex="1" parent="e5V6Vlwz6WyX7BvCqU7v-114">
          <mxGeometry y="26" width="140" height="26" as="geometry" />
        </mxCell>
        <mxCell id="e5V6Vlwz6WyX7BvCqU7v-118" value="&lt;b&gt;ingredienteid (FK) : int&lt;/b&gt;" style="text;strokeColor=none;fillColor=#dae8fc;align=left;verticalAlign=top;spacingLeft=4;spacingRight=4;overflow=hidden;rotatable=0;points=[[0,0.5],[1,0.5]];portConstraint=eastwest;whiteSpace=wrap;html=1;" vertex="1" parent="e5V6Vlwz6WyX7BvCqU7v-114">
          <mxGeometry y="52" width="140" height="26" as="geometry" />
        </mxCell>
        <mxCell id="e5V6Vlwz6WyX7BvCqU7v-119" value="&lt;b&gt;platoid (FK) : int&lt;/b&gt;" style="text;strokeColor=none;fillColor=#dae8fc;align=left;verticalAlign=top;spacingLeft=4;spacingRight=4;overflow=hidden;rotatable=0;points=[[0,0.5],[1,0.5]];portConstraint=eastwest;whiteSpace=wrap;html=1;" vertex="1" parent="e5V6Vlwz6WyX7BvCqU7v-114">
          <mxGeometry y="78" width="140" height="26" as="geometry" />
        </mxCell>
        <mxCell id="e5V6Vlwz6WyX7BvCqU7v-120" value="" style="endArrow=none;html=1;rounded=0;exitX=1;exitY=0.5;exitDx=0;exitDy=0;entryX=0;entryY=0.5;entryDx=0;entryDy=0;" edge="1" parent="1" source="e5V6Vlwz6WyX7BvCqU7v-25" target="e5V6Vlwz6WyX7BvCqU7v-114">
          <mxGeometry width="50" height="50" relative="1" as="geometry">
            <mxPoint x="420" y="510" as="sourcePoint" />
            <mxPoint x="440" y="460" as="targetPoint" />
          </mxGeometry>
        </mxCell>
        <mxCell id="e5V6Vlwz6WyX7BvCqU7v-122" style="edgeStyle=orthogonalEdgeStyle;rounded=0;orthogonalLoop=1;jettySize=auto;html=1;entryX=1;entryY=0.058;entryDx=0;entryDy=0;entryPerimeter=0;endArrow=none;endFill=0;" edge="1" parent="1" source="e5V6Vlwz6WyX7BvCqU7v-9" target="e5V6Vlwz6WyX7BvCqU7v-119">
          <mxGeometry relative="1" as="geometry" />
        </mxCell>
        <mxCell id="e5V6Vlwz6WyX7BvCqU7v-123" style="edgeStyle=orthogonalEdgeStyle;rounded=0;orthogonalLoop=1;jettySize=auto;html=1;entryX=0.75;entryY=1;entryDx=0;entryDy=0;endArrow=none;endFill=0;" edge="1" parent="1" source="e5V6Vlwz6WyX7BvCqU7v-9" target="e5V6Vlwz6WyX7BvCqU7v-51">
          <mxGeometry relative="1" as="geometry" />
        </mxCell>
        <mxCell id="e5V6Vlwz6WyX7BvCqU7v-124" value="*" style="edgeLabel;html=1;align=center;verticalAlign=middle;resizable=0;points=[];" vertex="1" connectable="0" parent="1">
          <mxGeometry x="700.2222222222222" y="180.0000000000001" as="geometry">
            <mxPoint x="-94" y="309" as="offset" />
          </mxGeometry>
        </mxCell>
        <mxCell id="e5V6Vlwz6WyX7BvCqU7v-125" value="*" style="edgeLabel;html=1;align=center;verticalAlign=middle;resizable=0;points=[];" vertex="1" connectable="0" parent="1">
          <mxGeometry x="700.2222222222222" y="192.0000000000001" as="geometry">
            <mxPoint x="100" y="304" as="offset" />
          </mxGeometry>
        </mxCell>
        <mxCell id="e5V6Vlwz6WyX7BvCqU7v-126" value="*" style="edgeLabel;html=1;align=center;verticalAlign=middle;resizable=0;points=[];" vertex="1" connectable="0" parent="1">
          <mxGeometry x="700.2222222222222" y="192.0000000000001" as="geometry">
            <mxPoint x="-269" y="265" as="offset" />
          </mxGeometry>
        </mxCell>
        <mxCell id="e5V6Vlwz6WyX7BvCqU7v-132" value="IngredientesPedidos" style="swimlane;fontStyle=0;childLayout=stackLayout;horizontal=1;startSize=26;fillColor=#6a00ff;horizontalStack=0;resizeParent=1;resizeParentMax=0;resizeLast=0;collapsible=1;marginBottom=0;whiteSpace=wrap;html=1;strokeColor=#3700CC;fontColor=#ffffff;" vertex="1" parent="1">
          <mxGeometry x="860" y="470" width="140" height="104" as="geometry" />
        </mxCell>
        <mxCell id="e5V6Vlwz6WyX7BvCqU7v-133" value="&lt;b&gt;id (PK) : int&lt;/b&gt;" style="text;strokeColor=none;fillColor=#dae8fc;align=left;verticalAlign=top;spacingLeft=4;spacingRight=4;overflow=hidden;rotatable=0;points=[[0,0.5],[1,0.5]];portConstraint=eastwest;whiteSpace=wrap;html=1;" vertex="1" parent="e5V6Vlwz6WyX7BvCqU7v-132">
          <mxGeometry y="26" width="140" height="26" as="geometry" />
        </mxCell>
        <mxCell id="e5V6Vlwz6WyX7BvCqU7v-134" value="&lt;b&gt;ingredienteid (FK) : int&lt;/b&gt;" style="text;strokeColor=none;fillColor=#dae8fc;align=left;verticalAlign=top;spacingLeft=4;spacingRight=4;overflow=hidden;rotatable=0;points=[[0,0.5],[1,0.5]];portConstraint=eastwest;whiteSpace=wrap;html=1;" vertex="1" parent="e5V6Vlwz6WyX7BvCqU7v-132">
          <mxGeometry y="52" width="140" height="26" as="geometry" />
        </mxCell>
        <mxCell id="e5V6Vlwz6WyX7BvCqU7v-135" value="&lt;b&gt;platoid (FK) : int&lt;/b&gt;" style="text;strokeColor=none;fillColor=#dae8fc;align=left;verticalAlign=top;spacingLeft=4;spacingRight=4;overflow=hidden;rotatable=0;points=[[0,0.5],[1,0.5]];portConstraint=eastwest;whiteSpace=wrap;html=1;" vertex="1" parent="e5V6Vlwz6WyX7BvCqU7v-132">
          <mxGeometry y="78" width="140" height="26" as="geometry" />
        </mxCell>
      </root>
    </mxGraphModel>
  </diagram>
</mxfile>
